Coordinates
version=1
nRows=15
nColumns=63
inDegrees=yes

Units are S.I. units (second, meters, Newtons, ...)
If the header above contains a line with 'inDegrees', this indicates whether rotational values are in degrees (yes) or radians (no).

endheader
time	pelvis_tilt	pelvis_list	pelvis_rotation	pelvis_tx	pelvis_ty	pelvis_tz	hip_flexion_r	hip_adduction_r	hip_rotation_r	knee_angle_r	knee_angle_r_beta	ankle_angle_r	subtalar_angle_r	mtp_angle_r	hip_flexion_l	hip_adduction_l	hip_rotation_l	knee_angle_l	knee_angle_l_beta	ankle_angle_l	subtalar_angle_l	mtp_angle_l	L5_S1_Flex_Ext	L5_S1_Lat_Bending	L5_S1_axial_rotation	L4_L5_Flex_Ext	L4_L5_Lat_Bending	L4_L5_axial_rotation	L3_L4_Flex_Ext	L3_L4_Lat_Bending	L3_L4_axial_rotation	L2_L3_Flex_Ext	L2_L3_Lat_Bending	L2_L3_axial_rotation	L1_L2_Flex_Ext	L1_L2_Lat_Bending	L1_L2_axial_rotation	L1_T12_Flex_Ext	L1_T12_Lat_Bending	L1_T12_axial_rotation	Abs_r3	Abs_r2	Abs_r1	Abs_t1	Abs_t2	neck_flexion	neck_bending	neck_rotation	arm_flex_r	arm_add_r	arm_rot_r	elbow_flex_r	pro_sup_r	wrist_flex_r	wrist_dev_r	arm_flex_l	arm_add_l	arm_rot_l	elbow_flex_l	pro_sup_l	wrist_flex_l	wrist_dev_l
0.000000	-3.136725	-2.372384	81.637888	0.267155	0.904541	0.657928	6.783740	-4.861620	-7.700112	10.047382	0.175360	35.219964	13.870057	0.000000	5.022928	3.426605	7.580420	3.007929	0.052498	29.917416	-14.595542	0.000000	0.156221	-0.380399	1.606971	0.290117	-0.505930	1.707406	0.256655	-0.924901	1.707406	0.178544	-0.924901	1.406099	0.145066	-0.775709	1.305664	0.089264	-0.589238	1.205228	1.115868	-4.303146	8.937488	0.000000	0.000000	25.661190	3.862757	-6.299074	10.263125	-5.175975	53.220732	32.859122	48.429115	8.250361	9.093148	16.190586	-9.145629	67.039595	41.386885	65.775823	2.712915	-4.227094
0.016667	-3.006230	-2.349171	81.582533	0.266886	0.905294	0.657820	6.378590	-4.653954	-6.308290	9.171467	0.160072	34.724732	12.717881	0.000000	4.943864	3.320443	8.078734	2.734425	0.047725	29.849005	-14.452984	0.000000	0.152445	-0.355259	1.532664	0.283105	-0.472494	1.628456	0.250452	-0.863777	1.628456	0.174229	-0.863777	1.341081	0.141560	-0.724444	1.245290	0.087107	-0.550296	1.149498	1.088898	-4.018760	8.524220	0.000000	0.000000	25.726391	4.023246	-5.563613	10.472220	-5.338081	54.009557	32.865638	51.496801	8.503031	7.231290	15.971917	-9.128476	67.549868	41.295519	62.448269	1.617898	-5.060167
0.033333	-2.922654	-2.357164	81.537110	0.266690	0.905820	0.657631	6.079612	-4.511659	-5.301204	8.485347	0.148097	34.318342	11.905985	0.000000	4.902078	3.254309	8.493341	2.505467	0.043729	29.806802	-14.375491	0.000000	0.153121	-0.335641	1.464767	0.284361	-0.446403	1.556315	0.251562	-0.816078	1.556315	0.175002	-0.816078	1.281671	0.142188	-0.684440	1.190123	0.087493	-0.519908	1.098575	1.093727	-3.796841	8.146593	0.000000	0.000000	25.816964	4.101191	-4.949866	10.641500	-5.448101	54.602693	32.875030	53.905675	8.741561	5.941391	15.730734	-9.131637	67.850374	41.260065	59.939906	0.635994	-5.752011
0.050000	-2.880549	-2.392786	81.501466	0.266559	0.906142	0.657373	5.877106	-4.427069	-4.636044	7.971835	0.139135	33.994620	11.394169	0.000000	4.893991	3.223325	8.825429	2.317966	0.040456	29.789417	-14.348236	0.000000	0.157660	-0.320994	1.403209	0.292790	-0.426922	1.490910	0.259019	-0.780464	1.490910	0.180189	-0.780464	1.227808	0.146403	-0.654570	1.140107	0.090087	-0.497219	1.052407	1.126146	-3.631144	7.804228	0.000000	0.000000	25.929189	4.104232	-4.451240	10.773605	-5.511776	55.016975	32.888055	55.714456	8.961759	5.159307	15.473078	-9.152260	67.966928	41.273850	58.163275	-0.237959	-6.312766
0.066667	-2.874469	-2.452461	81.475450	0.266486	0.906283	0.657058	5.761372	-4.392519	-4.270000	7.613747	0.132885	33.747388	11.142231	0.000000	4.916024	3.222613	9.076185	2.168831	0.037853	29.795456	-14.356395	0.000000	0.165471	-0.310764	1.347924	0.307297	-0.413316	1.432170	0.271853	-0.755592	1.432170	0.189117	-0.755592	1.179434	0.153657	-0.633710	1.095189	0.094550	-0.481373	1.010943	1.181945	-3.515424	7.496751	0.000000	0.000000	26.059344	4.040007	-4.061145	10.871170	-5.534846	55.269240	32.905470	56.981860	9.159434	4.820895	15.204989	-9.187491	67.925346	41.330204	57.030915	-1.009119	-6.752572
0.083333	-2.898967	-2.532609	81.458907	0.266462	0.906269	0.656697	5.722709	-4.400342	-4.160263	7.393897	0.129048	33.570472	11.109969	0.000000	4.964598	3.247296	9.246796	2.054973	0.035866	29.823528	-14.385140	0.000000	0.175967	-0.304400	1.298844	0.326788	-0.404852	1.380022	0.289096	-0.740119	1.380022	0.201112	-0.740119	1.136489	0.163403	-0.620733	1.055311	0.100547	-0.471516	0.974133	1.256912	-3.443436	7.223783	0.000000	0.000000	26.203709	3.916155	-3.772991	10.936834	-5.523054	55.376321	32.928032	57.766604	9.330392	4.862013	14.932507	-9.234477	67.751445	41.422457	56.455366	-1.682648	-7.081567
0.100000	-2.948596	-2.629656	81.451687	0.266481	0.906122	0.656303	5.751417	-4.442871	-4.264021	7.295100	0.127324	33.457695	11.257182	0.000000	5.036134	3.292496	9.338447	1.973301	0.034441	29.872242	-14.419645	0.000000	0.188556	-0.301350	1.255902	0.350168	-0.400796	1.334395	0.309779	-0.732703	1.334395	0.215501	-0.732703	1.098914	0.175093	-0.614514	1.020420	0.107741	-0.466792	0.941926	1.346838	-3.408936	6.984948	0.000000	0.000000	26.358563	3.740316	-3.580186	10.973233	-5.482139	55.355054	32.956497	58.127404	9.470442	5.218516	14.661672	-9.290366	67.471042	41.543937	56.349168	-2.263705	-7.309891
0.116667	-3.017909	-2.740023	81.453637	0.266534	0.905866	0.655888	5.837795	-4.512440	-4.538466	7.300170	0.127412	33.402882	11.543670	0.000000	5.127053	3.353336	9.352327	1.920726	0.033523	29.940206	-14.445084	0.000000	0.202651	-0.301062	1.219028	0.376342	-0.400413	1.295217	0.332935	-0.732003	1.295217	0.231609	-0.732003	1.066650	0.188181	-0.613926	0.990460	0.115795	-0.466345	0.914271	1.447513	-3.405677	6.779868	0.000000	0.000000	26.520184	3.520128	-3.476139	10.983005	-5.417843	55.222276	32.991623	58.122978	9.575392	5.826263	14.398524	-9.352305	67.109951	41.687975	56.624861	-2.757451	-7.447682
0.133333	-3.101460	-2.860133	81.464603	0.266613	0.905526	0.655464	5.972144	-4.601384	-4.940788	7.391922	0.129013	33.399857	11.929229	0.000000	5.233776	3.424938	9.289622	1.894158	0.033059	30.026028	-14.446632	0.000000	0.217660	-0.302984	1.188156	0.404217	-0.402969	1.262416	0.357594	-0.736675	1.262416	0.248764	-0.736675	1.039637	0.202119	-0.617845	0.965377	0.124371	-0.469322	0.891117	1.554726	-3.427415	6.608168	0.000000	0.000000	26.684852	3.263229	-3.454260	10.968788	-5.335907	54.994820	33.034168	57.812042	9.641050	6.621110	14.149105	-9.417441	66.693990	41.847899	57.194984	-3.169046	-7.505081
0.150000	-3.193801	-2.986408	81.484435	0.266712	0.905125	0.655043	6.144761	-4.702036	-5.428176	7.553170	0.131828	33.442445	12.373659	0.000000	5.352724	3.502424	9.151519	1.890505	0.032996	30.128317	-14.409461	0.000000	0.232996	-0.306563	1.163218	0.432697	-0.407729	1.235919	0.382789	-0.745378	1.235919	0.266291	-0.745378	1.017816	0.216360	-0.625144	0.945115	0.133134	-0.474867	0.872413	1.664268	-3.467906	6.469469	0.000000	0.000000	26.848847	2.977259	-3.507958	10.933219	-5.242072	54.689522	33.084887	57.253313	9.663222	7.538914	13.919453	-9.482920	66.248974	42.017040	57.972076	-3.503650	-7.492225
0.166667	-3.289486	-3.115273	81.512979	0.266821	0.904686	0.654638	6.345948	-4.806729	-5.957821	7.766730	0.135555	33.524469	12.836758	0.000000	5.480318	3.580918	8.939204	1.906680	0.033278	30.245680	-14.318746	0.000000	0.248068	-0.311248	1.144146	0.460688	-0.413960	1.215655	0.407551	-0.756769	1.215655	0.283517	-0.756769	1.001127	0.230356	-0.634698	0.929618	0.141746	-0.482124	0.858109	1.771927	-3.520903	6.363395	0.000000	0.000000	27.008446	2.669857	-3.630641	10.878936	-5.142079	54.323218	33.144539	56.505508	9.637719	8.515532	13.715610	-9.545890	65.800720	42.188725	58.868679	-3.766422	-7.419255
0.183333	-3.356775	-3.258638	81.555462	0.266892	0.904240	0.654231	6.562707	-4.869882	-6.339109	7.974584	0.139183	33.598992	13.121983	0.000000	5.636207	3.623655	8.313538	1.976384	0.034494	30.431923	-13.734591	0.000000	0.262524	-0.311239	1.107469	0.487534	-0.413948	1.176686	0.431301	-0.756747	1.176686	0.300039	-0.756747	0.969035	0.243780	-0.634679	0.899819	0.150006	-0.482110	0.830602	1.875185	-3.520800	6.159410	0.000000	0.000000	27.180315	2.377023	-3.624891	10.868595	-5.031021	54.172909	33.169028	55.763951	9.443650	9.304398	13.494997	-9.643538	65.406141	42.411306	59.329175	-4.159277	-7.473866
0.200000	-3.411156	-3.385096	81.614799	0.266953	0.903845	0.653912	6.777540	-4.920261	-6.716795	8.193286	0.143000	33.742785	13.402863	0.000000	5.781815	3.654291	7.684504	2.046785	0.035723	30.616588	-13.101351	0.000000	0.273963	-0.312271	1.091214	0.508776	-0.415320	1.159414	0.450093	-0.759256	1.159414	0.313112	-0.759256	0.954812	0.254402	-0.636783	0.886611	0.156542	-0.483708	0.818410	1.956888	-3.532472	6.069003	0.000000	0.000000	27.322526	2.064248	-3.808545	10.819158	-4.957991	53.961169	33.243302	54.785466	9.163532	9.894559	13.320522	-9.684472	64.921459	42.572952	60.085694	-4.300279	-7.319322
0.216667	-3.465602	-3.484407	81.675763	0.267013	0.903524	0.653704	6.980175	-4.960927	-6.918980	8.407449	0.146738	33.924884	13.485976	0.000000	5.904442	3.689985	7.205768	2.102808	0.036701	30.729189	-12.651159	0.000000	0.281078	-0.315732	1.101971	0.521990	-0.419924	1.170844	0.461783	-0.767671	1.170844	0.321244	-0.767671	0.964224	0.261009	-0.643841	0.895351	0.160608	-0.489069	0.826478	2.007710	-3.571625	6.128830	0.000000	0.000000	27.426820	1.724709	-4.191568	10.697722	-4.902068	53.483355	33.348836	53.995426	8.878312	10.305413	13.315191	-9.681661	64.802588	42.648982	60.481886	-4.320272	-7.113642
0.233333	-3.503141	-3.562054	81.752344	0.267066	0.903274	0.653581	7.166142	-4.978157	-7.008523	8.613236	0.150329	34.135093	13.431314	0.000000	6.004021	3.710556	6.858449	2.136776	0.037294	30.830584	-12.300539	0.000000	0.285081	-0.319654	1.126332	0.529425	-0.425139	1.196727	0.468360	-0.777206	1.196727	0.325820	-0.777206	0.985540	0.264727	-0.651838	0.915144	0.162896	-0.495144	0.844749	2.036308	-3.615987	6.264319	0.000000	0.000000	27.495225	1.384873	-4.706739	10.539222	-4.862347	52.881860	33.478352	53.286960	8.576837	10.565820	13.400121	-9.657604	64.833547	42.688256	60.706040	-4.207257	-6.790836
